<svg width="270" height="270" viewBox="0 0 270 270" fill="none" xmlns="http://www.w3.org/2000/svg">
<path fill-rule="evenodd" clip-rule="evenodd" d="M267.968 138.086C270.29 135.723 270.257 131.924 267.894 129.601L231.645 93.9801L231.202 43.1607C231.173 39.8471 228.463 37.1844 225.15 37.2133L174.33 37.6568L138.082 2.03568C135.718 -0.286925 131.92 -0.253773 129.597 2.10973L93.9759 38.358L43.1566 38.8015C39.843 38.8304 37.1802 41.5401 37.2091 44.8537L37.6526 95.673L2.03153 131.921C-0.291075 134.285 -0.257923 138.084 2.10558 140.406L38.3539 176.027L38.7974 226.847C38.8263 230.16 41.5359 232.823 44.8495 232.794L95.6689 232.351L131.917 267.972C134.281 270.294 138.08 270.261 140.402 267.898L176.023 231.649L226.843 231.206C230.156 231.177 232.819 228.467 232.79 225.154L232.346 174.334L267.968 138.086ZM140.196 24.0018L166.178 69.0048L204.746 91.2717C206.602 92.3435 207.746 94.3243 207.746 96.4679V104.833L251 129.806C255 132.115 255 137.888 251 140.198L207.746 165.171V173.54C207.746 175.683 206.602 177.664 204.746 178.736L166.175 201.005L140.196 246.002C137.887 250.002 132.113 250.002 129.804 246.002L103.825 201.005L65.2537 178.736C63.3973 177.664 62.2537 175.683 62.2537 173.54V165.171L18.9998 140.198C14.9998 137.888 14.9998 132.115 18.9998 129.806L62.2537 104.833V96.4679C62.2537 94.3243 63.3973 92.3435 65.2537 91.2717L103.821 69.0049L129.804 24.0018C132.113 20.0018 137.887 20.0018 140.196 24.0018Z" fill="white"/>
<path fill-rule="evenodd" clip-rule="evenodd" d="M178.301 110.036C178.301 110.014 178.289 109.993 178.27 109.982V109.982C178.215 109.95 178.154 110.012 178.185 110.067V110.067C178.217 110.122 178.301 110.1 178.301 110.036V110.036ZM133 86.1548C134.238 85.4403 135.762 85.4403 137 86.1548L171.069 105.825C173.736 107.364 173.736 111.213 171.069 112.753L136.785 132.547C135.547 133.262 134.022 133.262 132.785 132.547L98.7155 112.877C96.0488 111.338 96.0488 107.489 98.7155 105.949L133 86.1548ZM97.6987 114.6C95.0321 113.06 91.6987 114.984 91.6987 118.064V157.691C91.6987 159.12 92.4611 160.44 93.6987 161.155L128 180.959C130.667 182.498 134 180.574 134 177.495V137.867C134 136.438 133.238 135.118 132 134.403L97.6987 114.6ZM142 180.959C139.333 182.498 136 180.574 136 177.495V137.619C136 136.19 136.762 134.869 138 134.155L172.301 114.351C174.968 112.811 178.301 114.736 178.301 117.815V157.691C178.301 159.12 177.539 160.44 176.301 161.155L142 180.959Z" fill="white"/>
</svg>
